# xmcd
# Copyright (C) 1995-1998 Ti Kan
#
# Track frame offsets:
#       150
#       19644
#       40710
#       68774
#       101810
#       132748
#       171952
#       204788
#       225233
#       254194
#
# Disc length: 3715 seconds
#
# Revision: 0
# Processed by: cddbd v1.5.2PL0 Copyright (c) Steve Scherf et al.
# Submitted via: CD-Import v1.0
#
DISCID=850e810a
DTITLE=Knight Rider - Knight Rider: Der Duft Einer Rose
DYEAR=1900
DGENRE=
TTITLE0=Knight Rider T01
TTITLE1=Knight Rider T02
TTITLE2=Knight Rider T03
TTITLE3=Knight Rider T04
TTITLE4=Knight Rider T05
TTITLE5=Knight Rider T06
TTITLE6=Knight Rider T07
TTITLE7=Knight Rider T08
TTITLE8=Knight Rider T09
TTITLE9=Knight Rider T10
EXTD=
EXTT0=
EXTT1=
EXTT2=
EXTT3=
EXTT4=
EXTT5=
EXTT6=
EXTT7=
EXTT8=
EXTT9=
PLAYORDER=
